<svg viewBox="0 0 1290 980" xmlns="http://www.w3.org/2000/svg" font-family="'Segoe UI', system-ui, -apple-system, sans-serif">
  <defs>
    <marker id="ah" markerWidth="10" markerHeight="10" refX="7" refY="3" orient="auto"><path d="M0,0 L7,3 L0,6 Z" fill="#94a3b8"/></marker>
    <marker id="ahs" markerWidth="10" markerHeight="10" refX="0" refY="3" orient="auto"><path d="M7,0 L0,3 L7,6 Z" fill="#94a3b8"/></marker>
    <marker id="ahn" markerWidth="10" markerHeight="10" refX="7" refY="3" orient="auto"><path d="M0,0 L7,3 L0,6 Z" fill="#ea580c"/></marker>
  </defs>
  <rect x="0" y="0" width="1290" height="980" fill="#ffffff"/>

  <text x="560" y="34" text-anchor="middle" font-size="22" font-weight="700" fill="#0f172a">FabOps Governance — Future Architecture / Roadmap (Azure AI Foundry)</text>
  <text x="560" y="57" text-anchor="middle" font-size="12" fill="#64748b">Everything in Current, plus asynchronous batch execution, in-UI FRL editing, and notebook-based analysis</text>

  <!-- Legend -->
  <rect x="1035" y="74" width="16" height="12" rx="2" fill="#eef2ff" stroke="#4f46e5"/>
  <text x="1057" y="84" font-size="10.5" fill="#475569">Today</text>
  <rect x="1035" y="92" width="16" height="12" rx="2" fill="#fff7ed" stroke="#ea580c"/>
  <text x="1057" y="102" font-size="10.5" fill="#475569">New (roadmap)</text>
  <rect x="1135" y="74" width="16" height="12" rx="2" fill="#f0f9ff" stroke="#0ea5e9"/>
  <text x="1157" y="84" font-size="10.5" fill="#475569">MCP tool server</text>

  <!-- ===== UI ROW ===== -->
  <rect x="55" y="92" width="120" height="46" rx="10" fill="#f8fafc" stroke="#94a3b8"/>
  <text x="115" y="114" text-anchor="middle" font-size="13" font-weight="700" fill="#334155">User</text>
  <text x="115" y="129" text-anchor="middle" font-size="9.5" fill="#64748b">governance team</text>

  <rect x="205" y="86" width="235" height="58" rx="10" fill="#e2e8f0" stroke="#475569"/>
  <text x="322" y="110" text-anchor="middle" font-size="13" font-weight="700" fill="#334155">React UI · AG-UI</text>
  <text x="322" y="128" text-anchor="middle" font-size="10" fill="#475569">conversation + live results</text>
  <rect x="205" y="150" width="235" height="18" rx="9" fill="#fff7ed" stroke="#ea580c"/>
  <text x="322" y="163" text-anchor="middle" font-size="9.5" font-weight="600" fill="#c2410c">NEW · in-UI FRL source editing</text>

  <rect x="470" y="86" width="225" height="58" rx="10" fill="#f1f5f9" stroke="#64748b"/>
  <text x="582" y="110" text-anchor="middle" font-size="13" font-weight="700" fill="#334155">CopilotKit Runtime</text>
  <text x="582" y="128" text-anchor="middle" font-size="10" fill="#475569">(server) routes UI tools</text>

  <line x1="175" y1="114" x2="203" y2="114" stroke="#94a3b8" stroke-width="1.6" marker-end="url(#ah)"/>
  <line x1="440" y1="115" x2="468" y2="115" stroke="#94a3b8" stroke-width="1.6" marker-end="url(#ah)" marker-start="url(#ahs)"/>
  <line x1="582" y1="144" x2="575" y2="220" stroke="#94a3b8" stroke-width="1.6" marker-end="url(#ah)" marker-start="url(#ahs)"/>
  <rect x="590" y="172" width="170" height="15" fill="#ffffff"/>
  <text x="594" y="184" font-size="10" fill="#475569">AG-UI · agent endpoint</text>

  <!-- ===== FOUNDRY BOUNDARY ===== -->
  <rect x="110" y="185" width="980" height="480" rx="16" fill="#f8fafc" stroke="#94a3b8" stroke-width="1.5"/>
  <text x="128" y="206" font-size="12.5" font-weight="600" fill="#475569">Azure AI Foundry — Agent Service · Azure OpenAI (GPT-4.1) · agents over A2A</text>

  <!-- Orchestrator -->
  <rect x="360" y="222" width="420" height="84" rx="12" fill="#eef2ff" stroke="#4f46e5" stroke-width="1.5"/>
  <text x="570" y="249" text-anchor="middle" font-size="15" font-weight="700" fill="#3730a3">FabOps Orchestrator</text>
  <text x="570" y="270" text-anchor="middle" font-size="11.5" font-style="italic" fill="#6366f1">routes: explain · author · run</text>
  <text x="570" y="287" text-anchor="middle" font-size="11.5" font-style="italic" fill="#6366f1">answers FRL / process / roadmap — grounded</text>

  <!-- Rules Manager -->
  <rect x="150" y="360" width="270" height="96" rx="12" fill="#ccfbf1" stroke="#0d9488" stroke-width="1.5"/>
  <text x="285" y="388" text-anchor="middle" font-size="13.5" font-weight="700" fill="#115e59">Rules Generator &amp; Manager</text>
  <text x="285" y="410" text-anchor="middle" font-size="11" font-style="italic" fill="#0d9488">NL → FRL · dedup (vector search)</text>
  <text x="285" y="427" text-anchor="middle" font-size="11" font-style="italic" fill="#0d9488">versioning · saves run results</text>

  <!-- Compiler -->
  <rect x="470" y="360" width="270" height="96" rx="12" fill="#ede9fe" stroke="#7c3aed" stroke-width="1.5"/>
  <text x="605" y="388" text-anchor="middle" font-size="13.5" font-weight="700" fill="#5b21b6">FRL Compiler &amp; Runner</text>
  <text x="605" y="410" text-anchor="middle" font-size="11" font-style="italic" fill="#7c3aed">scope vs containment chain</text>
  <text x="605" y="427" text-anchor="middle" font-size="11" font-style="italic" fill="#7c3aed">namespace → MCP vs notebook</text>

  <!-- Policy Checker -->
  <rect x="790" y="360" width="270" height="96" rx="12" fill="#dbeafe" stroke="#2563eb" stroke-width="1.5"/>
  <text x="925" y="388" text-anchor="middle" font-size="13.5" font-weight="700" fill="#1e40af">Policy Checker</text>
  <text x="925" y="410" text-anchor="middle" font-size="10.5" font-style="italic" fill="#2563eb">resolve live metadata · Domain→Workspace</text>
  <text x="925" y="427" text-anchor="middle" font-size="11" font-style="italic" fill="#2563eb">apply operators → verdict</text>

  <!-- Async batch (NEW) -->
  <rect x="470" y="500" width="270" height="56" rx="12" fill="#fff7ed" stroke="#ea580c" stroke-width="1.6"/>
  <rect x="700" y="506" width="34" height="15" rx="4" fill="#ea580c"/>
  <text x="717" y="517" text-anchor="middle" font-size="9" font-weight="700" fill="#ffffff">NEW</text>
  <text x="600" y="523" text-anchor="middle" font-size="12.5" font-weight="700" fill="#c2410c">Async Batch Runner</text>
  <text x="600" y="541" text-anchor="middle" font-size="10" fill="#c2410c">large jobs · runs asynchronously</text>
  <line x1="605" y1="456" x2="605" y2="500" stroke="#ea580c" stroke-width="1.6" marker-end="url(#ahn)"/>
  <rect x="612" y="468" width="120" height="15" fill="#ffffff"/>
  <text x="616" y="480" font-size="10" fill="#c2410c">scale-out batches</text>

  <!-- agent arrows -->
  <line x1="470" y1="306" x2="300" y2="358" stroke="#94a3b8" stroke-width="1.6" marker-end="url(#ah)"/>
  <rect x="300" y="318" width="160" height="16" fill="#ffffff"/>
  <text x="380" y="330" text-anchor="middle" font-size="10.5" fill="#475569">author · retrieve · persist</text>

  <line x1="575" y1="306" x2="605" y2="358" stroke="#94a3b8" stroke-width="1.6" marker-end="url(#ah)"/>
  <rect x="560" y="322" width="118" height="16" fill="#ffffff"/>
  <text x="619" y="334" text-anchor="middle" font-size="10.5" fill="#475569">run: FRL + filter</text>

  <line x1="740" y1="402" x2="790" y2="402" stroke="#94a3b8" stroke-width="1.6" marker-end="url(#ah)" marker-start="url(#ahs)"/>
  <rect x="700" y="384" width="130" height="15" fill="#ffffff"/>
  <text x="765" y="395" text-anchor="middle" font-size="10" fill="#475569">evaluate ⇵ results</text>

  <!-- ===== KNOWLEDGE (Foundry IQ) ===== -->
  <rect x="1100" y="222" width="175" height="80" rx="10" fill="#ecfeff" stroke="#0ea5e9" stroke-width="1.6"/>
  <rect x="1238" y="227" width="32" height="15" rx="4" fill="#0ea5e9"/>
  <text x="1254" y="238" text-anchor="middle" font-size="9" font-weight="700" fill="#ffffff">MCP</text>
  <text x="1187" y="249" text-anchor="middle" font-size="12.5" font-weight="700" fill="#0e7490">Foundry IQ</text>
  <text x="1187" y="266" text-anchor="middle" font-size="11" fill="#0e7490">Knowledge Base</text>
  <text x="1187" y="283" text-anchor="middle" font-size="9.5" fill="#0891b2">agentic retrieval · cited</text>

  <rect x="1100" y="318" width="175" height="48" rx="8" fill="#ffffff" stroke="#94a3b8"/>
  <text x="1187" y="338" text-anchor="middle" font-size="11" font-weight="700" fill="#334155">Azure AI Search</text>
  <text x="1187" y="354" text-anchor="middle" font-size="9.5" fill="#64748b">index · hybrid · rerank</text>

  <rect x="1100" y="382" width="175" height="48" rx="8" fill="#ffffff" stroke="#94a3b8"/>
  <text x="1187" y="402" text-anchor="middle" font-size="11" font-weight="700" fill="#334155">Project docs</text>
  <text x="1187" y="418" text-anchor="middle" font-size="9" fill="#64748b">FRL spec · guides · roadmap</text>

  <line x1="1187" y1="382" x2="1187" y2="368" stroke="#94a3b8" stroke-width="1.6" marker-end="url(#ah)"/>
  <line x1="1187" y1="318" x2="1187" y2="304" stroke="#94a3b8" stroke-width="1.6" marker-end="url(#ah)"/>
  <text x="1212" y="376" text-anchor="middle" font-size="9" fill="#64748b">indexed</text>
  <line x1="780" y1="255" x2="1098" y2="255" stroke="#94a3b8" stroke-width="1.6" marker-end="url(#ah)" marker-start="url(#ahs)"/>
  <rect x="858" y="238" width="190" height="15" fill="#ffffff"/>
  <text x="953" y="249" text-anchor="middle" font-size="10" fill="#475569">knowledge_base_retrieve (MCP)</text>

  <!-- ===== COSMOS LANE ===== -->
  <rect x="150" y="700" width="270" height="64" rx="10" fill="#f0f9ff" stroke="#0ea5e9" stroke-width="1.6"/>
  <rect x="385" y="706" width="32" height="15" rx="4" fill="#0ea5e9"/>
  <text x="401" y="717" text-anchor="middle" font-size="9" font-weight="700" fill="#ffffff">MCP</text>
  <text x="280" y="726" text-anchor="middle" font-size="12.5" font-weight="700" fill="#0369a1">Cosmos DB MCP Toolkit</text>
  <text x="280" y="744" text-anchor="middle" font-size="10" fill="#0c4a6e">Foundry custom tool · Entra ID</text>

  <rect x="150" y="792" width="270" height="64" rx="10" fill="#e0f2fe" stroke="#0078d4" stroke-width="1.5"/>
  <text x="285" y="819" text-anchor="middle" font-size="13" font-weight="700" fill="#075985">Azure Cosmos DB</text>
  <text x="285" y="838" text-anchor="middle" font-size="10" fill="#0c4a6e">governance store · vector search</text>

  <line x1="285" y1="456" x2="285" y2="698" stroke="#94a3b8" stroke-width="1.6" marker-end="url(#ah)" marker-start="url(#ahs)"/>
  <rect x="200" y="568" width="170" height="16" fill="#ffffff"/>
  <text x="285" y="580" text-anchor="middle" font-size="10" fill="#475569">rules + results (MCP)</text>
  <line x1="285" y1="764" x2="285" y2="790" stroke="#94a3b8" stroke-width="1.6" marker-end="url(#ah)"/>

  <!-- ===== FABRIC LANE ===== -->
  <rect x="790" y="700" width="270" height="64" rx="10" fill="#f0f9ff" stroke="#0ea5e9" stroke-width="1.6"/>
  <rect x="1025" y="706" width="32" height="15" rx="4" fill="#0ea5e9"/>
  <text x="1041" y="717" text-anchor="middle" font-size="9" font-weight="700" fill="#ffffff">MCP</text>
  <text x="920" y="726" text-anchor="middle" font-size="12.5" font-weight="700" fill="#0369a1">Fabric MCP</text>
  <text x="920" y="744" text-anchor="middle" font-size="10" fill="#0c4a6e">live tenant API</text>

  <rect x="790" y="792" width="270" height="64" rx="10" fill="#e2e8f0" stroke="#475569" stroke-width="1.5"/>
  <text x="925" y="819" text-anchor="middle" font-size="13" font-weight="700" fill="#334155">Microsoft Fabric</text>
  <text x="925" y="838" text-anchor="middle" font-size="10" fill="#475569">workspaces · roles · domains</text>

  <!-- Notebook (NEW) -->
  <rect x="790" y="884" width="270" height="46" rx="10" fill="#fff7ed" stroke="#ea580c" stroke-width="1.6"/>
  <rect x="1025" y="888" width="32" height="15" rx="4" fill="#ea580c"/>
  <text x="1041" y="899" text-anchor="middle" font-size="9" font-weight="700" fill="#ffffff">NEW</text>
  <text x="918" y="905" text-anchor="middle" font-size="11" font-weight="700" fill="#c2410c">Fabric Notebook (Spark)</text>
  <text x="918" y="920" text-anchor="middle" font-size="9.5" fill="#c2410c">complex / data-level analysis</text>

  <line x1="925" y1="456" x2="925" y2="698" stroke="#94a3b8" stroke-width="1.6" marker-end="url(#ah)" marker-start="url(#ahs)"/>
  <rect x="840" y="568" width="170" height="16" fill="#ffffff"/>
  <text x="925" y="580" text-anchor="middle" font-size="10" fill="#475569">live metadata (MCP)</text>
  <line x1="925" y1="764" x2="925" y2="790" stroke="#94a3b8" stroke-width="1.6" marker-end="url(#ah)"/>
  <line x1="925" y1="856" x2="925" y2="884" stroke="#ea580c" stroke-width="1.6" marker-end="url(#ahn)"/>
  <text x="965" y="874" text-anchor="middle" font-size="9" fill="#c2410c">Spark jobs</text>

  <text x="560" y="958" text-anchor="middle" font-size="11" font-style="italic" fill="#475569">Orange = new in this release: asynchronous batch execution for large jobs · in-UI FRL source editing · notebook (Spark) analysis for complex checks.</text>
</svg>
